<svg viewBox="0 0 1000 740" xmlns="http://www.w3.org/2000/svg" font-family="-apple-system, system-ui, 'Segoe UI', sans-serif">
  <rect x="0" y="0" width="1000" height="740" fill="#f7f6f2"/>
  <rect x="6" y="6" width="988" height="728" fill="none" stroke="#cdc9bf" stroke-width="1.5"/>

  <!-- title block -->
  <text x="20" y="30" font-size="17" font-weight="700" fill="#2b2b28">CARD-CAGE MOUNTING — ASSEMBLY REFERENCE</text>
  <text x="20" y="48" font-size="12" fill="#6f6c64">Representative 2-row × 3-key cell of the final 84-key plate · all dimensions mm · Z datum = plate top</text>
  <line x1="500" y1="58" x2="500" y2="392" stroke="#ddd9cf" stroke-width="1.2"/>
  <line x1="14" y1="392" x2="986" y2="392" stroke="#ddd9cf" stroke-width="1.2"/>
  <line x1="500" y1="392" x2="500" y2="726" stroke="#ddd9cf" stroke-width="1.2"/>

  <!-- ============ PANEL 1: EXPLODED FRONT VIEW ============ -->
  <text x="22" y="78" font-size="13" font-weight="700" fill="#2b2b28">1 · EXPLODED FRONT VIEW  (looking along the row)</text>

  <!-- comb lid -->
  <rect x="118" y="88" width="270" height="12" fill="#e7e4db" stroke="#46443f" stroke-width="1.3"/>
  <circle cx="128" cy="94" r="3" fill="#46443f"/><circle cx="378" cy="94" r="3" fill="#46443f"/>
  <rect x="196" y="100" width="8" height="9" fill="#2f8f83"/><rect x="302" y="100" width="8" height="9" fill="#2f8f83"/>
  <text x="398" y="92" font-size="10.5" fill="#6f6c64">comb lid (slim, vented)</text>
  <text x="398" y="105" font-size="10.5" fill="#2f8f83">teeth grab wall tops</text>
  <line x1="253" y1="112" x2="253" y2="126" stroke="#bf8a2e" stroke-width="1.3" stroke-dasharray="3 3"/>
  <polygon points="253,126 249,119 257,119" fill="#bf8a2e"/>

  <!-- wall (behind) -->
  <rect x="118" y="130" width="270" height="9" fill="#efeee9" stroke="#8a877e" stroke-width="1" stroke-dasharray="5 3"/>
  <text x="398" y="138" font-size="10.5" fill="#6f6c64">wall card (behind)</text>

  <!-- solenoids x3 -->
  <g stroke="#46443f" stroke-width="1.2" fill="#efeee9">
    <rect x="140" y="142" width="40" height="66"/><rect x="254" y="142" width="40" height="66"/><rect x="368" y="142" width="40" height="66"/>
  </g>
  <g fill="#46443f">
    <circle cx="160" cy="156" r="2.4"/><circle cx="160" cy="190" r="2.4"/>
    <circle cx="274" cy="156" r="2.4"/><circle cx="274" cy="190" r="2.4"/>
    <circle cx="388" cy="156" r="2.4"/><circle cx="388" cy="190" r="2.4"/>
  </g>
  <g stroke="#46443f" stroke-width="2"><line x1="160" y1="208" x2="160" y2="250"/><line x1="274" y1="208" x2="274" y2="250"/><line x1="388" y1="208" x2="388" y2="250"/></g>
  <circle cx="160" cy="254" r="4" fill="#46443f"/><circle cx="274" cy="254" r="4" fill="#46443f"/><circle cx="388" cy="254" r="4" fill="#46443f"/>
  <!-- pitch dim -->
  <line x1="160" y1="134" x2="274" y2="134" stroke="#6f6c64" stroke-width="0.9"/>
  <line x1="160" y1="130" x2="160" y2="138" stroke="#6f6c64" stroke-width="0.9"/><line x1="274" y1="130" x2="274" y2="138" stroke="#6f6c64" stroke-width="0.9"/>
  <text x="217" y="129" font-size="10" text-anchor="middle" fill="#6f6c64">19.05</text>
  <text x="396" y="160" font-size="10.5" fill="#6f6c64">solenoid ×3</text>
  <text x="396" y="173" font-size="10.5" fill="#6f6c64">screws Z7 &amp; Z22</text>
  <text x="396" y="186" font-size="10.5" fill="#2f8f83">bolted on bench,</text>
  <text x="396" y="199" font-size="10.5" fill="#2f8f83">then drop in ↓</text>
  <!-- drop-in arrows -->
  <g stroke="#bf8a2e" stroke-width="1.3" stroke-dasharray="3 3"><line x1="160" y1="258" x2="160" y2="286"/><line x1="274" y1="258" x2="274" y2="286"/><line x1="388" y1="258" x2="388" y2="286"/></g>
  <polygon points="160,286 156,279 164,279" fill="#bf8a2e"/><polygon points="274,286 270,279 278,279" fill="#bf8a2e"/><polygon points="388,286 384,279 392,279" fill="#bf8a2e"/>

  <!-- base -->
  <rect x="116" y="290" width="300" height="22" fill="#e7e4db" stroke="#46443f" stroke-width="1.3"/>
  <ellipse cx="160" cy="291" rx="8" ry="3" fill="#d6d3ca" stroke="#8a877e" stroke-width="0.8"/>
  <ellipse cx="274" cy="291" rx="8" ry="3" fill="#d6d3ca" stroke="#8a877e" stroke-width="0.8"/>
  <ellipse cx="388" cy="291" rx="8" ry="3" fill="#d6d3ca" stroke="#8a877e" stroke-width="0.8"/>
  <rect x="120" y="266" width="12" height="24" fill="#e2e0d8" stroke="#46443f" stroke-width="1"/><circle cx="126" cy="269" r="2.4" fill="#46443f"/>
  <rect x="400" y="266" width="12" height="24" fill="#e2e0d8" stroke="#46443f" stroke-width="1"/><circle cx="406" cy="269" r="2.4" fill="#46443f"/>
  <rect x="150" y="312" width="18" height="28" fill="#e2e0d8" stroke="#46443f" stroke-width="1"/>
  <rect x="366" y="312" width="18" height="28" fill="#e2e0d8" stroke="#46443f" stroke-width="1"/>
  <line x1="120" y1="342" x2="412" y2="342" stroke="#6f6c64" stroke-width="1" stroke-dasharray="4 3"/>
  <text x="116" y="360" font-size="10.5" fill="#6f6c64">base plate: plunger holes · wall groove (into page) · end posts · legs</text>

  <!-- ============ PANEL 2: SIDE SECTION ============ -->
  <text x="514" y="78" font-size="13" font-weight="700" fill="#2b2b28">2 · SIDE SECTION  (the joint, dimensioned)</text>

  <!-- plate-top datum -->
  <line x1="600" y1="276" x2="900" y2="276" stroke="#bf8a2e" stroke-width="0.8" stroke-dasharray="4 3"/>
  <text x="905" y="279" font-size="9.5" fill="#bf8a2e">Z4 top (datum)</text>

  <!-- base slab -->
  <rect x="640" y="276" width="250" height="24" fill="#e7e4db" stroke="#46443f" stroke-width="1.3"/>
  <!-- plunger hole -->
  <rect x="742" y="276" width="13" height="24" fill="#ffffff" stroke="#8a877e" stroke-width="0.8"/>
  <!-- groove (blind) -->
  <rect x="792" y="276" width="15" height="15" fill="#ffffff" stroke="#2f8f83" stroke-width="1.2"/>
  <text x="812" y="299" font-size="9.5" fill="#2f8f83">groove 2.5 (floor 1.5)</text>

  <!-- wall + foot -->
  <rect x="792" y="108" width="15" height="168" fill="#efeee9" stroke="#46443f" stroke-width="1.2"/>
  <rect x="792" y="276" width="15" height="15" fill="#dff0ec" stroke="#2f8f83" stroke-width="1.2"/>
  <text x="760" y="104" font-size="9.5" fill="#6f6c64">wall 2.5, top Z32</text>

  <!-- body -->
  <rect x="718" y="120" width="74" height="168" fill="#efeee9" stroke="#46443f" stroke-width="1.2"/>
  <!-- screws -->
  <line x1="807" y1="168" x2="792" y2="168" stroke="#46443f" stroke-width="2"/><circle cx="809" cy="168" r="2.6" fill="#46443f"/>
  <line x1="807" y1="258" x2="792" y2="258" stroke="#46443f" stroke-width="2"/><circle cx="809" cy="258" r="2.6" fill="#46443f"/>
  <text x="612" y="171" font-size="9.5" fill="#6f6c64">Z22</text><text x="612" y="261" font-size="9.5" fill="#6f6c64">Z7</text>
  <line x1="628" y1="168" x2="716" y2="168" stroke="#c9c6bd" stroke-width="0.7" stroke-dasharray="3 3"/>
  <line x1="628" y1="258" x2="716" y2="258" stroke="#c9c6bd" stroke-width="0.7" stroke-dasharray="3 3"/>

  <!-- plunger + ball -->
  <line x1="748" y1="288" x2="748" y2="322" stroke="#46443f" stroke-width="2.4"/>
  <circle cx="748" cy="326" r="4.5" fill="#46443f"/>
  <text x="660" y="330" font-size="9.5" fill="#6f6c64">ball ~4 below plate (at rest)</text>

  <!-- comb lid -->
  <rect x="786" y="90" width="74" height="36" fill="#e7e4db" stroke="#46443f" stroke-width="1.3"/>
  <rect x="792" y="108" width="15" height="18" fill="#dff0ec" stroke="#2f8f83" stroke-width="1.1"/>
  <text x="786" y="84" font-size="9.5" fill="#2f8f83">lid groove 3 — captures wall top</text>

  <!-- post -->
  <rect x="842" y="126" width="15" height="174" fill="#e2e0d8" stroke="#46443f" stroke-width="1.1"/>
  <circle cx="849" cy="100" r="2.6" fill="#46443f"/>
  <line x1="849" y1="102" x2="849" y2="126" stroke="#46443f" stroke-width="2"/>
  <text x="864" y="150" font-size="9.5" fill="#6f6c64">end post</text>
  <text x="864" y="163" font-size="9.5" fill="#6f6c64">(lid bolts here)</text>

  <!-- legs + tilt -->
  <rect x="650" y="300" width="14" height="30" fill="#e2e0d8" stroke="#46443f" stroke-width="1"/>
  <rect x="868" y="300" width="14" height="50" fill="#e2e0d8" stroke="#46443f" stroke-width="1"/>
  <line x1="648" y1="332" x2="884" y2="352" stroke="#6f6c64" stroke-width="1" stroke-dasharray="4 3"/>
  <text x="700" y="348" font-size="9.5" fill="#6f6c64">legs set the ~4.5° tilt (back taller)</text>

  <!-- a few dims -->
  <text x="905" y="291" font-size="9.5" fill="#6f6c64">plate 4</text>

  <!-- ============ PANEL 3: TOP PLAN ============ -->
  <text x="22" y="412" font-size="13" font-weight="700" fill="#2b2b28">3 · TOP PLAN — base layout</text>

  <!-- grooves -->
  <rect x="120" y="556" width="330" height="17" fill="#dff0ec" stroke="#2f8f83" stroke-width="1"/>
  <rect x="120" y="442" width="330" height="17" fill="#dff0ec" stroke="#2f8f83" stroke-width="1"/>
  <text x="455" y="567" font-size="9.5" fill="#2f8f83">groove (wall foot)</text>

  <!-- holes -->
  <g fill="#ffffff" stroke="#46443f" stroke-width="1.3">
    <circle cx="180" cy="612" r="28"/><circle cx="294" cy="612" r="28"/><circle cx="408" cy="612" r="28"/>
    <circle cx="180" cy="498" r="28"/><circle cx="294" cy="498" r="28"/><circle cx="408" cy="498" r="28"/>
  </g>
  <g fill="#46443f"><circle cx="180" cy="612" r="2.5"/><circle cx="294" cy="612" r="2.5"/><circle cx="408" cy="612" r="2.5"/><circle cx="180" cy="498" r="2.5"/><circle cx="294" cy="498" r="2.5"/><circle cx="408" cy="498" r="2.5"/></g>
  <!-- end posts -->
  <rect x="126" y="470" width="14" height="14" fill="#e2e0d8" stroke="#46443f" stroke-width="1"/>
  <rect x="448" y="470" width="14" height="14" fill="#e2e0d8" stroke="#46443f" stroke-width="1"/>
  <!-- dims -->
  <line x1="180" y1="660" x2="294" y2="660" stroke="#6f6c64" stroke-width="0.9"/>
  <line x1="180" y1="656" x2="180" y2="664" stroke="#6f6c64" stroke-width="0.9"/><line x1="294" y1="656" x2="294" y2="664" stroke="#6f6c64" stroke-width="0.9"/>
  <text x="237" y="675" font-size="10" text-anchor="middle" fill="#6f6c64">19.05</text>
  <line x1="140" y1="612" x2="140" y2="498" stroke="#6f6c64" stroke-width="0.9"/>
  <line x1="136" y1="612" x2="144" y2="612" stroke="#6f6c64" stroke-width="0.9"/><line x1="136" y1="498" x2="144" y2="498" stroke="#6f6c64" stroke-width="0.9"/>
  <text x="120" y="558" font-size="10" text-anchor="middle" fill="#6f6c64" transform="rotate(-90 120 558)">19.05</text>
  <text x="408" y="582" font-size="9.5" fill="#6f6c64">Ø10</text>
  <text x="22" y="712" font-size="9.5" fill="#6f6c64">Final plate: back row shifts 4.76 left (stagger) — omitted here for clarity.</text>

  <!-- ============ PANEL 4: FULL BOARD ============ -->
  <text x="514" y="412" font-size="13" font-weight="700" fill="#2b2b28">4 · THE FINAL 84-KEY PLATE</text>
  <rect x="560" y="436" width="380" height="150" fill="#ffffff" stroke="#46443f" stroke-width="1.4"/>
  <g fill="#c4c1b7">
    <!-- 6 schematic rows -->
    <g>
      <circle cx="576" cy="452" r="2.3"/><circle cx="600" cy="452" r="2.3"/><circle cx="624" cy="452" r="2.3"/><circle cx="648" cy="452" r="2.3"/><circle cx="672" cy="452" r="2.3"/><circle cx="696" cy="452" r="2.3"/><circle cx="720" cy="452" r="2.3"/><circle cx="744" cy="452" r="2.3"/><circle cx="768" cy="452" r="2.3"/><circle cx="792" cy="452" r="2.3"/><circle cx="816" cy="452" r="2.3"/><circle cx="840" cy="452" r="2.3"/><circle cx="864" cy="452" r="2.3"/><circle cx="888" cy="452" r="2.3"/>
    </g>
  </g>
  <g fill="#c4c1b7">
    <g id="rowset">
      <g transform="translate(0,22)"><circle cx="576" cy="452" r="2.3"/><circle cx="600" cy="452" r="2.3"/><circle cx="624" cy="452" r="2.3"/><circle cx="648" cy="452" r="2.3"/><circle cx="672" cy="452" r="2.3"/><circle cx="696" cy="452" r="2.3"/><circle cx="720" cy="452" r="2.3"/><circle cx="744" cy="452" r="2.3"/><circle cx="768" cy="452" r="2.3"/><circle cx="792" cy="452" r="2.3"/><circle cx="816" cy="452" r="2.3"/><circle cx="840" cy="452" r="2.3"/><circle cx="864" cy="452" r="2.3"/><circle cx="888" cy="452" r="2.3"/></g>
      <g transform="translate(0,44)"><circle cx="576" cy="452" r="2.3"/><circle cx="600" cy="452" r="2.3"/><circle cx="624" cy="452" r="2.3"/><circle cx="648" cy="452" r="2.3"/><circle cx="672" cy="452" r="2.3"/><circle cx="696" cy="452" r="2.3"/><circle cx="720" cy="452" r="2.3"/><circle cx="744" cy="452" r="2.3"/><circle cx="768" cy="452" r="2.3"/><circle cx="792" cy="452" r="2.3"/><circle cx="816" cy="452" r="2.3"/><circle cx="840" cy="452" r="2.3"/><circle cx="864" cy="452" r="2.3"/><circle cx="888" cy="452" r="2.3"/></g>
      <g transform="translate(0,66)"><circle cx="576" cy="452" r="2.3"/><circle cx="600" cy="452" r="2.3"/><circle cx="624" cy="452" r="2.3"/><circle cx="648" cy="452" r="2.3"/><circle cx="672" cy="452" r="2.3"/><circle cx="696" cy="452" r="2.3"/><circle cx="720" cy="452" r="2.3"/><circle cx="744" cy="452" r="2.3"/><circle cx="768" cy="452" r="2.3"/><circle cx="792" cy="452" r="2.3"/><circle cx="816" cy="452" r="2.3"/><circle cx="840" cy="452" r="2.3"/><circle cx="864" cy="452" r="2.3"/><circle cx="888" cy="452" r="2.3"/></g>
      <g transform="translate(0,88)"><circle cx="576" cy="452" r="2.3"/><circle cx="600" cy="452" r="2.3"/><circle cx="624" cy="452" r="2.3"/><circle cx="648" cy="452" r="2.3"/><circle cx="672" cy="452" r="2.3"/><circle cx="696" cy="452" r="2.3"/><circle cx="720" cy="452" r="2.3"/><circle cx="744" cy="452" r="2.3"/><circle cx="768" cy="452" r="2.3"/><circle cx="792" cy="452" r="2.3"/><circle cx="816" cy="452" r="2.3"/><circle cx="840" cy="452" r="2.3"/><circle cx="864" cy="452" r="2.3"/><circle cx="888" cy="452" r="2.3"/></g>
      <g transform="translate(0,110)"><circle cx="576" cy="452" r="2.3"/><circle cx="600" cy="452" r="2.3"/><circle cx="624" cy="452" r="2.3"/><circle cx="648" cy="452" r="2.3"/><circle cx="672" cy="452" r="2.3"/><circle cx="696" cy="452" r="2.3"/><circle cx="720" cy="452" r="2.3"/><circle cx="744" cy="452" r="2.3"/><circle cx="768" cy="452" r="2.3"/><circle cx="792" cy="452" r="2.3"/><circle cx="816" cy="452" r="2.3"/><circle cx="840" cy="452" r="2.3"/><circle cx="864" cy="452" r="2.3"/><circle cx="888" cy="452" r="2.3"/></g>
    </g>
  </g>
  <!-- split seam -->
  <line x1="750" y1="436" x2="750" y2="586" stroke="#bf8a2e" stroke-width="1.6" stroke-dasharray="6 4"/>
  <text x="660" y="600" font-size="9.5" fill="#bf8a2e">2 printed halves — brick-bond seam</text>
  <!-- highlight the detailed cell -->
  <rect x="570" y="446" width="60" height="46" fill="none" stroke="#2f8f83" stroke-width="1.6"/>
  <line x1="600" y1="492" x2="610" y2="520" stroke="#2f8f83" stroke-width="1"/>
  <text x="600" y="533" font-size="9.5" fill="#2f8f83">the cell shown in panels 1–3</text>
  <!-- notes -->
  <text x="560" y="632" font-size="10.5" fill="#2b2b28">• 6 rows → 6 removable wall cards</text>
  <text x="560" y="650" font-size="10.5" fill="#2b2b28">• base-comb + slim vented top-comb</text>
  <text x="560" y="668" font-size="10.5" fill="#2b2b28">• per-half wall modules; dowel the seam</text>
  <text x="560" y="686" font-size="10.5" fill="#2b2b28">• solenoids bolt to walls on the bench, then drop in</text>

  <text x="560" y="716" font-size="9" fill="#9a978e">Schematic engineering reference — not to scale between panels. Dimensions are the validated values from CardCage_SingleRow_Test_Plan.md.</text>
</svg>