<svg xmlns="http://www.w3.org/2000/svg" viewBox="0 0 744 336" font-family="Helvetica,Arial,sans-serif">
<rect x="0" y="0" width="744" height="336" fill="#ffffff"/>
<text x="44" y="26" font-size="20" font-weight="bold" fill="#1a202c">Full 84-Key Plate — top view, 84 keys split into two printable halves — P2S 256mm bed</text>
<rect x="45.2" y="51.7" width="615.5" height="234.5" rx="6" fill="#f7fafc" stroke="#4a5568" stroke-width="1.5"/>
<rect x="49.2" y="55.2" width="607.5" height="5.0" fill="#a0aec0" opacity="0.65"/>
<rect x="49.2" y="93.3" width="607.5" height="5.0" fill="#a0aec0" opacity="0.65"/>
<rect x="58.8" y="131.4" width="598.0" height="5.0" fill="#a0aec0" opacity="0.65"/>
<rect x="63.5" y="169.5" width="593.2" height="5.0" fill="#a0aec0" opacity="0.65"/>
<rect x="73.0" y="207.6" width="583.7" height="5.0" fill="#a0aec0" opacity="0.65"/>
<rect x="54.0" y="245.7" width="602.7" height="5.0" fill="#a0aec0" opacity="0.65"/>
<text x="662.7" y="137.9" font-size="11" fill="#4a5568">← mounting wall (one per row, solenoids screw in)</text>
<rect x="63.2" y="32.7" width="36.0" height="24.0" rx="3" fill="#c6f6d5" stroke="#2f855d" stroke-width="1.2"/>
<text x="81.2" y="44.7" font-size="9" fill="#22543d" text-anchor="middle">leg</text>
<rect x="606.7" y="32.7" width="36.0" height="24.0" rx="3" fill="#c6f6d5" stroke="#2f855d" stroke-width="1.2"/>
<text x="624.7" y="44.7" font-size="9" fill="#22543d" text-anchor="middle">leg</text>
<rect x="63.2" y="293.2" width="36.0" height="24.0" rx="3" fill="#c6f6d5" stroke="#2f855d" stroke-width="1.2"/>
<text x="81.2" y="305.2" font-size="9" fill="#22543d" text-anchor="middle">leg</text>
<rect x="606.7" y="293.2" width="36.0" height="24.0" rx="3" fill="#c6f6d5" stroke="#2f855d" stroke-width="1.2"/>
<text x="624.7" y="305.2" font-size="9" fill="#22543d" text-anchor="middle">leg</text>
<rect x="50.2" y="56.7" width="34.0" height="34.0" rx="2.5" fill="#cfe3f7" stroke="#2b6cb0" stroke-width="1"/>
<circle cx="67.2" cy="73.7" r="10.0" fill="#ffffff" stroke="#333" stroke-width="0.8"/>
<text x="67.2" y="76.7" font-size="9" fill="#1a202c" text-anchor="middle">Esc</text>
<rect x="88.3" y="56.7" width="34.0" height="34.0" rx="2.5" fill="#cfe3f7" stroke="#2b6cb0" stroke-width="1"/>
<circle cx="105.3" cy="73.7" r="10.0" fill="#ffffff" stroke="#333" stroke-width="0.8"/>
<text x="105.3" y="76.7" font-size="9" fill="#1a202c" text-anchor="middle">F1</text>
<rect x="126.4" y="56.7" width="34.0" height="34.0" rx="2.5" fill="#cfe3f7" stroke="#2b6cb0" stroke-width="1"/>
<circle cx="143.4" cy="73.7" r="10.0" fill="#ffffff" stroke="#333" stroke-width="0.8"/>
<text x="143.4" y="76.7" font-size="9" fill="#1a202c" text-anchor="middle">F2</text>
<rect x="164.5" y="56.7" width="34.0" height="34.0" rx="2.5" fill="#cfe3f7" stroke="#2b6cb0" stroke-width="1"/>
<circle cx="181.5" cy="73.7" r="10.0" fill="#ffffff" stroke="#333" stroke-width="0.8"/>
<text x="181.5" y="76.7" font-size="9" fill="#1a202c" text-anchor="middle">F3</text>
<rect x="202.6" y="56.7" width="34.0" height="34.0" rx="2.5" fill="#cfe3f7" stroke="#2b6cb0" stroke-width="1"/>
<circle cx="219.6" cy="73.7" r="10.0" fill="#ffffff" stroke="#333" stroke-width="0.8"/>
<text x="219.6" y="76.7" font-size="9" fill="#1a202c" text-anchor="middle">F4</text>
<rect x="240.7" y="56.7" width="34.0" height="34.0" rx="2.5" fill="#cfe3f7" stroke="#2b6cb0" stroke-width="1"/>
<circle cx="257.7" cy="73.7" r="10.0" fill="#ffffff" stroke="#333" stroke-width="0.8"/>
<text x="257.7" y="76.7" font-size="9" fill="#1a202c" text-anchor="middle">F5</text>
<rect x="278.8" y="56.7" width="34.0" height="34.0" rx="2.5" fill="#cfe3f7" stroke="#2b6cb0" stroke-width="1"/>
<circle cx="295.8" cy="73.7" r="10.0" fill="#ffffff" stroke="#333" stroke-width="0.8"/>
<text x="295.8" y="76.7" font-size="9" fill="#1a202c" text-anchor="middle">F6</text>
<rect x="316.9" y="56.7" width="34.0" height="34.0" rx="2.5" fill="#cfe3f7" stroke="#2b6cb0" stroke-width="1"/>
<circle cx="333.9" cy="73.7" r="10.0" fill="#ffffff" stroke="#333" stroke-width="0.8"/>
<text x="333.9" y="76.7" font-size="9" fill="#1a202c" text-anchor="middle">F7</text>
<rect x="355.0" y="56.7" width="34.0" height="34.0" rx="2.5" fill="#fde2cf" stroke="#c05621" stroke-width="1"/>
<circle cx="372.0" cy="73.7" r="10.0" fill="#ffffff" stroke="#333" stroke-width="0.8"/>
<text x="372.0" y="76.7" font-size="9" fill="#1a202c" text-anchor="middle">F8</text>
<rect x="393.1" y="56.7" width="34.0" height="34.0" rx="2.5" fill="#fde2cf" stroke="#c05621" stroke-width="1"/>
<circle cx="410.1" cy="73.7" r="10.0" fill="#ffffff" stroke="#333" stroke-width="0.8"/>
<text x="410.1" y="76.7" font-size="9" fill="#1a202c" text-anchor="middle">F9</text>
<rect x="431.2" y="56.7" width="34.0" height="34.0" rx="2.5" fill="#fde2cf" stroke="#c05621" stroke-width="1"/>
<circle cx="448.2" cy="73.7" r="10.0" fill="#ffffff" stroke="#333" stroke-width="0.8"/>
<text x="448.2" y="76.7" font-size="9" fill="#1a202c" text-anchor="middle">F10</text>
<rect x="469.3" y="56.7" width="34.0" height="34.0" rx="2.5" fill="#fde2cf" stroke="#c05621" stroke-width="1"/>
<circle cx="486.3" cy="73.7" r="10.0" fill="#ffffff" stroke="#333" stroke-width="0.8"/>
<text x="486.3" y="76.7" font-size="9" fill="#1a202c" text-anchor="middle">F11</text>
<rect x="507.4" y="56.7" width="34.0" height="34.0" rx="2.5" fill="#fde2cf" stroke="#c05621" stroke-width="1"/>
<circle cx="524.4" cy="73.7" r="10.0" fill="#ffffff" stroke="#333" stroke-width="0.8"/>
<text x="524.4" y="76.7" font-size="9" fill="#1a202c" text-anchor="middle">F12</text>
<rect x="545.5" y="56.7" width="34.0" height="34.0" rx="2.5" fill="#fde2cf" stroke="#c05621" stroke-width="1"/>
<circle cx="562.5" cy="73.7" r="10.0" fill="#ffffff" stroke="#333" stroke-width="0.8"/>
<text x="562.5" y="76.7" font-size="9" fill="#1a202c" text-anchor="middle">PrtSc</text>
<rect x="583.6" y="56.7" width="34.0" height="34.0" rx="2.5" fill="#fde2cf" stroke="#c05621" stroke-width="1"/>
<circle cx="600.6" cy="73.7" r="10.0" fill="#ffffff" stroke="#333" stroke-width="0.8"/>
<text x="600.6" y="76.7" font-size="9" fill="#1a202c" text-anchor="middle">Cust1</text>
<rect x="621.7" y="56.7" width="34.0" height="34.0" rx="2.5" fill="#fde2cf" stroke="#c05621" stroke-width="1"/>
<circle cx="638.7" cy="73.7" r="10.0" fill="#ffffff" stroke="#333" stroke-width="0.8"/>
<text x="638.7" y="76.7" font-size="9" fill="#1a202c" text-anchor="middle">Cust2</text>
<rect x="50.2" y="94.8" width="34.0" height="34.0" rx="2.5" fill="#cfe3f7" stroke="#2b6cb0" stroke-width="1"/>
<circle cx="67.2" cy="111.8" r="10.0" fill="#ffffff" stroke="#333" stroke-width="0.8"/>
<text x="67.2" y="114.8" font-size="9" fill="#1a202c" text-anchor="middle">`</text>
<rect x="88.3" y="94.8" width="34.0" height="34.0" rx="2.5" fill="#cfe3f7" stroke="#2b6cb0" stroke-width="1"/>
<circle cx="105.3" cy="111.8" r="10.0" fill="#ffffff" stroke="#333" stroke-width="0.8"/>
<text x="105.3" y="114.8" font-size="9" fill="#1a202c" text-anchor="middle">1</text>
<rect x="126.4" y="94.8" width="34.0" height="34.0" rx="2.5" fill="#cfe3f7" stroke="#2b6cb0" stroke-width="1"/>
<circle cx="143.4" cy="111.8" r="10.0" fill="#ffffff" stroke="#333" stroke-width="0.8"/>
<text x="143.4" y="114.8" font-size="9" fill="#1a202c" text-anchor="middle">2</text>
<rect x="164.5" y="94.8" width="34.0" height="34.0" rx="2.5" fill="#cfe3f7" stroke="#2b6cb0" stroke-width="1"/>
<circle cx="181.5" cy="111.8" r="10.0" fill="#ffffff" stroke="#333" stroke-width="0.8"/>
<text x="181.5" y="114.8" font-size="9" fill="#1a202c" text-anchor="middle">3</text>
<rect x="202.6" y="94.8" width="34.0" height="34.0" rx="2.5" fill="#cfe3f7" stroke="#2b6cb0" stroke-width="1"/>
<circle cx="219.6" cy="111.8" r="10.0" fill="#ffffff" stroke="#333" stroke-width="0.8"/>
<text x="219.6" y="114.8" font-size="9" fill="#1a202c" text-anchor="middle">4</text>
<rect x="240.7" y="94.8" width="34.0" height="34.0" rx="2.5" fill="#cfe3f7" stroke="#2b6cb0" stroke-width="1"/>
<circle cx="257.7" cy="111.8" r="10.0" fill="#ffffff" stroke="#333" stroke-width="0.8"/>
<text x="257.7" y="114.8" font-size="9" fill="#1a202c" text-anchor="middle">5</text>
<rect x="278.8" y="94.8" width="34.0" height="34.0" rx="2.5" fill="#cfe3f7" stroke="#2b6cb0" stroke-width="1"/>
<circle cx="295.8" cy="111.8" r="10.0" fill="#ffffff" stroke="#333" stroke-width="0.8"/>
<text x="295.8" y="114.8" font-size="9" fill="#1a202c" text-anchor="middle">6</text>
<rect x="316.9" y="94.8" width="34.0" height="34.0" rx="2.5" fill="#cfe3f7" stroke="#2b6cb0" stroke-width="1"/>
<circle cx="333.9" cy="111.8" r="10.0" fill="#ffffff" stroke="#333" stroke-width="0.8"/>
<text x="333.9" y="114.8" font-size="9" fill="#1a202c" text-anchor="middle">7</text>
<rect x="355.0" y="94.8" width="34.0" height="34.0" rx="2.5" fill="#fde2cf" stroke="#c05621" stroke-width="1"/>
<circle cx="372.0" cy="111.8" r="10.0" fill="#ffffff" stroke="#333" stroke-width="0.8"/>
<text x="372.0" y="114.8" font-size="9" fill="#1a202c" text-anchor="middle">8</text>
<rect x="393.1" y="94.8" width="34.0" height="34.0" rx="2.5" fill="#fde2cf" stroke="#c05621" stroke-width="1"/>
<circle cx="410.1" cy="111.8" r="10.0" fill="#ffffff" stroke="#333" stroke-width="0.8"/>
<text x="410.1" y="114.8" font-size="9" fill="#1a202c" text-anchor="middle">9</text>
<rect x="431.2" y="94.8" width="34.0" height="34.0" rx="2.5" fill="#fde2cf" stroke="#c05621" stroke-width="1"/>
<circle cx="448.2" cy="111.8" r="10.0" fill="#ffffff" stroke="#333" stroke-width="0.8"/>
<text x="448.2" y="114.8" font-size="9" fill="#1a202c" text-anchor="middle">0</text>
<rect x="469.3" y="94.8" width="34.0" height="34.0" rx="2.5" fill="#fde2cf" stroke="#c05621" stroke-width="1"/>
<circle cx="486.3" cy="111.8" r="10.0" fill="#ffffff" stroke="#333" stroke-width="0.8"/>
<text x="486.3" y="114.8" font-size="9" fill="#1a202c" text-anchor="middle">-</text>
<rect x="507.4" y="94.8" width="34.0" height="34.0" rx="2.5" fill="#fde2cf" stroke="#c05621" stroke-width="1"/>
<circle cx="524.4" cy="111.8" r="10.0" fill="#ffffff" stroke="#333" stroke-width="0.8"/>
<text x="524.4" y="114.8" font-size="9" fill="#1a202c" text-anchor="middle">=</text>
<rect x="564.6" y="94.8" width="34.0" height="34.0" rx="2.5" fill="#fde2cf" stroke="#c05621" stroke-width="1"/>
<circle cx="581.6" cy="111.8" r="10.0" fill="#ffffff" stroke="#333" stroke-width="0.8"/>
<text x="581.6" y="114.8" font-size="9" fill="#1a202c" text-anchor="middle">Bksp</text>
<rect x="621.7" y="94.8" width="34.0" height="34.0" rx="2.5" fill="#fde2cf" stroke="#c05621" stroke-width="1"/>
<circle cx="638.7" cy="111.8" r="10.0" fill="#ffffff" stroke="#333" stroke-width="0.8"/>
<text x="638.7" y="114.8" font-size="9" fill="#1a202c" text-anchor="middle">nav-Home</text>
<rect x="59.8" y="132.9" width="34.0" height="34.0" rx="2.5" fill="#cfe3f7" stroke="#2b6cb0" stroke-width="1"/>
<circle cx="76.8" cy="149.9" r="10.0" fill="#ffffff" stroke="#333" stroke-width="0.8"/>
<text x="76.8" y="152.9" font-size="9" fill="#1a202c" text-anchor="middle">Tab</text>
<rect x="107.4" y="132.9" width="34.0" height="34.0" rx="2.5" fill="#cfe3f7" stroke="#2b6cb0" stroke-width="1"/>
<circle cx="124.4" cy="149.9" r="10.0" fill="#ffffff" stroke="#333" stroke-width="0.8"/>
<text x="124.4" y="152.9" font-size="9" fill="#1a202c" text-anchor="middle">Q</text>
<rect x="145.5" y="132.9" width="34.0" height="34.0" rx="2.5" fill="#cfe3f7" stroke="#2b6cb0" stroke-width="1"/>
<circle cx="162.5" cy="149.9" r="10.0" fill="#ffffff" stroke="#333" stroke-width="0.8"/>
<text x="162.5" y="152.9" font-size="9" fill="#1a202c" text-anchor="middle">W</text>
<rect x="183.6" y="132.9" width="34.0" height="34.0" rx="2.5" fill="#cfe3f7" stroke="#2b6cb0" stroke-width="1"/>
<circle cx="200.6" cy="149.9" r="10.0" fill="#ffffff" stroke="#333" stroke-width="0.8"/>
<text x="200.6" y="152.9" font-size="9" fill="#1a202c" text-anchor="middle">E</text>
<rect x="221.7" y="132.9" width="34.0" height="34.0" rx="2.5" fill="#cfe3f7" stroke="#2b6cb0" stroke-width="1"/>
<circle cx="238.7" cy="149.9" r="10.0" fill="#ffffff" stroke="#333" stroke-width="0.8"/>
<text x="238.7" y="152.9" font-size="9" fill="#1a202c" text-anchor="middle">R</text>
<rect x="259.8" y="132.9" width="34.0" height="34.0" rx="2.5" fill="#cfe3f7" stroke="#2b6cb0" stroke-width="1"/>
<circle cx="276.8" cy="149.9" r="10.0" fill="#ffffff" stroke="#333" stroke-width="0.8"/>
<text x="276.8" y="152.9" font-size="9" fill="#1a202c" text-anchor="middle">T</text>
<rect x="297.9" y="132.9" width="34.0" height="34.0" rx="2.5" fill="#cfe3f7" stroke="#2b6cb0" stroke-width="1"/>
<circle cx="314.9" cy="149.9" r="10.0" fill="#ffffff" stroke="#333" stroke-width="0.8"/>
<text x="314.9" y="152.9" font-size="9" fill="#1a202c" text-anchor="middle">Y</text>
<rect x="336.0" y="132.9" width="34.0" height="34.0" rx="2.5" fill="#fde2cf" stroke="#c05621" stroke-width="1"/>
<circle cx="353.0" cy="149.9" r="10.0" fill="#ffffff" stroke="#333" stroke-width="0.8"/>
<text x="353.0" y="152.9" font-size="9" fill="#1a202c" text-anchor="middle">U</text>
<rect x="374.1" y="132.9" width="34.0" height="34.0" rx="2.5" fill="#fde2cf" stroke="#c05621" stroke-width="1"/>
<circle cx="391.1" cy="149.9" r="10.0" fill="#ffffff" stroke="#333" stroke-width="0.8"/>
<text x="391.1" y="152.9" font-size="9" fill="#1a202c" text-anchor="middle">I</text>
<rect x="412.2" y="132.9" width="34.0" height="34.0" rx="2.5" fill="#fde2cf" stroke="#c05621" stroke-width="1"/>
<circle cx="429.2" cy="149.9" r="10.0" fill="#ffffff" stroke="#333" stroke-width="0.8"/>
<text x="429.2" y="152.9" font-size="9" fill="#1a202c" text-anchor="middle">O</text>
<rect x="450.3" y="132.9" width="34.0" height="34.0" rx="2.5" fill="#fde2cf" stroke="#c05621" stroke-width="1"/>
<circle cx="467.3" cy="149.9" r="10.0" fill="#ffffff" stroke="#333" stroke-width="0.8"/>
<text x="467.3" y="152.9" font-size="9" fill="#1a202c" text-anchor="middle">P</text>
<rect x="488.4" y="132.9" width="34.0" height="34.0" rx="2.5" fill="#fde2cf" stroke="#c05621" stroke-width="1"/>
<circle cx="505.4" cy="149.9" r="10.0" fill="#ffffff" stroke="#333" stroke-width="0.8"/>
<text x="505.4" y="152.9" font-size="9" fill="#1a202c" text-anchor="middle">[</text>
<rect x="526.5" y="132.9" width="34.0" height="34.0" rx="2.5" fill="#fde2cf" stroke="#c05621" stroke-width="1"/>
<circle cx="543.5" cy="149.9" r="10.0" fill="#ffffff" stroke="#333" stroke-width="0.8"/>
<text x="543.5" y="152.9" font-size="9" fill="#1a202c" text-anchor="middle">]</text>
<rect x="574.1" y="132.9" width="34.0" height="34.0" rx="2.5" fill="#fde2cf" stroke="#c05621" stroke-width="1"/>
<circle cx="591.1" cy="149.9" r="10.0" fill="#ffffff" stroke="#333" stroke-width="0.8"/>
<text x="591.1" y="152.9" font-size="9" fill="#1a202c" text-anchor="middle">\</text>
<rect x="621.7" y="132.9" width="34.0" height="34.0" rx="2.5" fill="#fde2cf" stroke="#c05621" stroke-width="1"/>
<circle cx="638.7" cy="149.9" r="10.0" fill="#ffffff" stroke="#333" stroke-width="0.8"/>
<text x="638.7" y="152.9" font-size="9" fill="#1a202c" text-anchor="middle">nav-PgUp</text>
<rect x="64.5" y="171.0" width="34.0" height="34.0" rx="2.5" fill="#cfe3f7" stroke="#2b6cb0" stroke-width="1"/>
<circle cx="81.5" cy="188.0" r="10.0" fill="#ffffff" stroke="#333" stroke-width="0.8"/>
<text x="81.5" y="191.0" font-size="9" fill="#1a202c" text-anchor="middle">Caps</text>
<rect x="116.9" y="171.0" width="34.0" height="34.0" rx="2.5" fill="#cfe3f7" stroke="#2b6cb0" stroke-width="1"/>
<circle cx="133.9" cy="188.0" r="10.0" fill="#ffffff" stroke="#333" stroke-width="0.8"/>
<text x="133.9" y="191.0" font-size="9" fill="#1a202c" text-anchor="middle">A</text>
<rect x="155.0" y="171.0" width="34.0" height="34.0" rx="2.5" fill="#cfe3f7" stroke="#2b6cb0" stroke-width="1"/>
<circle cx="172.0" cy="188.0" r="10.0" fill="#ffffff" stroke="#333" stroke-width="0.8"/>
<text x="172.0" y="191.0" font-size="9" fill="#1a202c" text-anchor="middle">S</text>
<rect x="193.1" y="171.0" width="34.0" height="34.0" rx="2.5" fill="#cfe3f7" stroke="#2b6cb0" stroke-width="1"/>
<circle cx="210.1" cy="188.0" r="10.0" fill="#ffffff" stroke="#333" stroke-width="0.8"/>
<text x="210.1" y="191.0" font-size="9" fill="#1a202c" text-anchor="middle">D</text>
<rect x="231.2" y="171.0" width="34.0" height="34.0" rx="2.5" fill="#cfe3f7" stroke="#2b6cb0" stroke-width="1"/>
<circle cx="248.2" cy="188.0" r="10.0" fill="#ffffff" stroke="#333" stroke-width="0.8"/>
<text x="248.2" y="191.0" font-size="9" fill="#1a202c" text-anchor="middle">F</text>
<rect x="269.3" y="171.0" width="34.0" height="34.0" rx="2.5" fill="#cfe3f7" stroke="#2b6cb0" stroke-width="1"/>
<circle cx="286.3" cy="188.0" r="10.0" fill="#ffffff" stroke="#333" stroke-width="0.8"/>
<text x="286.3" y="191.0" font-size="9" fill="#1a202c" text-anchor="middle">G</text>
<rect x="307.4" y="171.0" width="34.0" height="34.0" rx="2.5" fill="#cfe3f7" stroke="#2b6cb0" stroke-width="1"/>
<circle cx="324.4" cy="188.0" r="10.0" fill="#ffffff" stroke="#333" stroke-width="0.8"/>
<text x="324.4" y="191.0" font-size="9" fill="#1a202c" text-anchor="middle">H</text>
<rect x="345.5" y="171.0" width="34.0" height="34.0" rx="2.5" fill="#fde2cf" stroke="#c05621" stroke-width="1"/>
<circle cx="362.5" cy="188.0" r="10.0" fill="#ffffff" stroke="#333" stroke-width="0.8"/>
<text x="362.5" y="191.0" font-size="9" fill="#1a202c" text-anchor="middle">J</text>
<rect x="383.6" y="171.0" width="34.0" height="34.0" rx="2.5" fill="#fde2cf" stroke="#c05621" stroke-width="1"/>
<circle cx="400.6" cy="188.0" r="10.0" fill="#ffffff" stroke="#333" stroke-width="0.8"/>
<text x="400.6" y="191.0" font-size="9" fill="#1a202c" text-anchor="middle">K</text>
<rect x="421.7" y="171.0" width="34.0" height="34.0" rx="2.5" fill="#fde2cf" stroke="#c05621" stroke-width="1"/>
<circle cx="438.7" cy="188.0" r="10.0" fill="#ffffff" stroke="#333" stroke-width="0.8"/>
<text x="438.7" y="191.0" font-size="9" fill="#1a202c" text-anchor="middle">L</text>
<rect x="459.8" y="171.0" width="34.0" height="34.0" rx="2.5" fill="#fde2cf" stroke="#c05621" stroke-width="1"/>
<circle cx="476.8" cy="188.0" r="10.0" fill="#ffffff" stroke="#333" stroke-width="0.8"/>
<text x="476.8" y="191.0" font-size="9" fill="#1a202c" text-anchor="middle">;</text>
<rect x="497.9" y="171.0" width="34.0" height="34.0" rx="2.5" fill="#fde2cf" stroke="#c05621" stroke-width="1"/>
<circle cx="514.9" cy="188.0" r="10.0" fill="#ffffff" stroke="#333" stroke-width="0.8"/>
<text x="514.9" y="191.0" font-size="9" fill="#1a202c" text-anchor="middle">'</text>
<rect x="559.8" y="171.0" width="34.0" height="34.0" rx="2.5" fill="#fde2cf" stroke="#c05621" stroke-width="1"/>
<circle cx="576.8" cy="188.0" r="10.0" fill="#ffffff" stroke="#333" stroke-width="0.8"/>
<text x="576.8" y="191.0" font-size="9" fill="#1a202c" text-anchor="middle">Enter</text>
<rect x="621.7" y="171.0" width="34.0" height="34.0" rx="2.5" fill="#fde2cf" stroke="#c05621" stroke-width="1"/>
<circle cx="638.7" cy="188.0" r="10.0" fill="#ffffff" stroke="#333" stroke-width="0.8"/>
<text x="638.7" y="191.0" font-size="9" fill="#1a202c" text-anchor="middle">nav-PgDn</text>
<rect x="74.0" y="209.1" width="34.0" height="34.0" rx="2.5" fill="#cfe3f7" stroke="#2b6cb0" stroke-width="1"/>
<circle cx="91.0" cy="226.1" r="10.0" fill="#ffffff" stroke="#333" stroke-width="0.8"/>
<text x="91.0" y="229.1" font-size="9" fill="#1a202c" text-anchor="middle">LShift</text>
<rect x="135.9" y="209.1" width="34.0" height="34.0" rx="2.5" fill="#cfe3f7" stroke="#2b6cb0" stroke-width="1"/>
<circle cx="152.9" cy="226.1" r="10.0" fill="#ffffff" stroke="#333" stroke-width="0.8"/>
<text x="152.9" y="229.1" font-size="9" fill="#1a202c" text-anchor="middle">Z</text>
<rect x="174.1" y="209.1" width="34.0" height="34.0" rx="2.5" fill="#cfe3f7" stroke="#2b6cb0" stroke-width="1"/>
<circle cx="191.1" cy="226.1" r="10.0" fill="#ffffff" stroke="#333" stroke-width="0.8"/>
<text x="191.1" y="229.1" font-size="9" fill="#1a202c" text-anchor="middle">X</text>
<rect x="212.2" y="209.1" width="34.0" height="34.0" rx="2.5" fill="#cfe3f7" stroke="#2b6cb0" stroke-width="1"/>
<circle cx="229.2" cy="226.1" r="10.0" fill="#ffffff" stroke="#333" stroke-width="0.8"/>
<text x="229.2" y="229.1" font-size="9" fill="#1a202c" text-anchor="middle">C</text>
<rect x="250.2" y="209.1" width="34.0" height="34.0" rx="2.5" fill="#cfe3f7" stroke="#2b6cb0" stroke-width="1"/>
<circle cx="267.2" cy="226.1" r="10.0" fill="#ffffff" stroke="#333" stroke-width="0.8"/>
<text x="267.2" y="229.1" font-size="9" fill="#1a202c" text-anchor="middle">V</text>
<rect x="288.3" y="209.1" width="34.0" height="34.0" rx="2.5" fill="#cfe3f7" stroke="#2b6cb0" stroke-width="1"/>
<circle cx="305.3" cy="226.1" r="10.0" fill="#ffffff" stroke="#333" stroke-width="0.8"/>
<text x="305.3" y="229.1" font-size="9" fill="#1a202c" text-anchor="middle">B</text>
<rect x="326.5" y="209.1" width="34.0" height="34.0" rx="2.5" fill="#cfe3f7" stroke="#2b6cb0" stroke-width="1"/>
<circle cx="343.5" cy="226.1" r="10.0" fill="#ffffff" stroke="#333" stroke-width="0.8"/>
<text x="343.5" y="229.1" font-size="9" fill="#1a202c" text-anchor="middle">N</text>
<rect x="364.6" y="209.1" width="34.0" height="34.0" rx="2.5" fill="#fde2cf" stroke="#c05621" stroke-width="1"/>
<circle cx="381.6" cy="226.1" r="10.0" fill="#ffffff" stroke="#333" stroke-width="0.8"/>
<text x="381.6" y="229.1" font-size="9" fill="#1a202c" text-anchor="middle">M</text>
<rect x="402.7" y="209.1" width="34.0" height="34.0" rx="2.5" fill="#fde2cf" stroke="#c05621" stroke-width="1"/>
<circle cx="419.7" cy="226.1" r="10.0" fill="#ffffff" stroke="#333" stroke-width="0.8"/>
<text x="419.7" y="229.1" font-size="9" fill="#1a202c" text-anchor="middle">,</text>
<rect x="440.8" y="209.1" width="34.0" height="34.0" rx="2.5" fill="#fde2cf" stroke="#c05621" stroke-width="1"/>
<circle cx="457.8" cy="226.1" r="10.0" fill="#ffffff" stroke="#333" stroke-width="0.8"/>
<text x="457.8" y="229.1" font-size="9" fill="#1a202c" text-anchor="middle">.</text>
<rect x="478.9" y="209.1" width="34.0" height="34.0" rx="2.5" fill="#fde2cf" stroke="#c05621" stroke-width="1"/>
<circle cx="495.9" cy="226.1" r="10.0" fill="#ffffff" stroke="#333" stroke-width="0.8"/>
<text x="495.9" y="229.1" font-size="9" fill="#1a202c" text-anchor="middle">/</text>
<rect x="531.2" y="209.1" width="34.0" height="34.0" rx="2.5" fill="#fde2cf" stroke="#c05621" stroke-width="1"/>
<circle cx="548.2" cy="226.1" r="10.0" fill="#ffffff" stroke="#333" stroke-width="0.8"/>
<text x="548.2" y="229.1" font-size="9" fill="#1a202c" text-anchor="middle">RShift</text>
<rect x="583.6" y="209.1" width="34.0" height="34.0" rx="2.5" fill="#fde2cf" stroke="#c05621" stroke-width="1"/>
<circle cx="600.6" cy="226.1" r="10.0" fill="#ffffff" stroke="#333" stroke-width="0.8"/>
<text x="600.6" y="229.1" font-size="9" fill="#1a202c" text-anchor="middle">Up</text>
<rect x="621.7" y="209.1" width="34.0" height="34.0" rx="2.5" fill="#fde2cf" stroke="#c05621" stroke-width="1"/>
<circle cx="638.7" cy="226.1" r="10.0" fill="#ffffff" stroke="#333" stroke-width="0.8"/>
<text x="638.7" y="229.1" font-size="9" fill="#1a202c" text-anchor="middle">nav-End</text>
<rect x="55.0" y="247.2" width="34.0" height="34.0" rx="2.5" fill="#cfe3f7" stroke="#2b6cb0" stroke-width="1"/>
<circle cx="72.0" cy="264.2" r="10.0" fill="#ffffff" stroke="#333" stroke-width="0.8"/>
<text x="72.0" y="267.2" font-size="9" fill="#1a202c" text-anchor="middle">LCtrl</text>
<rect x="102.6" y="247.2" width="34.0" height="34.0" rx="2.5" fill="#cfe3f7" stroke="#2b6cb0" stroke-width="1"/>
<circle cx="119.6" cy="264.2" r="10.0" fill="#ffffff" stroke="#333" stroke-width="0.8"/>
<text x="119.6" y="267.2" font-size="9" fill="#1a202c" text-anchor="middle">LOpt</text>
<rect x="150.2" y="247.2" width="34.0" height="34.0" rx="2.5" fill="#cfe3f7" stroke="#2b6cb0" stroke-width="1"/>
<circle cx="167.2" cy="264.2" r="10.0" fill="#ffffff" stroke="#333" stroke-width="0.8"/>
<text x="167.2" y="267.2" font-size="9" fill="#1a202c" text-anchor="middle">LCmd</text>
<rect x="293.1" y="247.2" width="34.0" height="34.0" rx="2.5" fill="#cfe3f7" stroke="#2b6cb0" stroke-width="1"/>
<circle cx="310.1" cy="264.2" r="10.0" fill="#ffffff" stroke="#333" stroke-width="0.8"/>
<text x="310.1" y="267.2" font-size="9" fill="#1a202c" text-anchor="middle">Space</text>
<rect x="431.2" y="247.2" width="34.0" height="34.0" rx="2.5" fill="#fde2cf" stroke="#c05621" stroke-width="1"/>
<circle cx="448.2" cy="264.2" r="10.0" fill="#ffffff" stroke="#333" stroke-width="0.8"/>
<text x="448.2" y="267.2" font-size="9" fill="#1a202c" text-anchor="middle">RCmd</text>
<rect x="469.3" y="247.2" width="34.0" height="34.0" rx="2.5" fill="#fde2cf" stroke="#c05621" stroke-width="1"/>
<circle cx="486.3" cy="264.2" r="10.0" fill="#ffffff" stroke="#333" stroke-width="0.8"/>
<text x="486.3" y="267.2" font-size="9" fill="#1a202c" text-anchor="middle">Fn</text>
<rect x="507.4" y="247.2" width="34.0" height="34.0" rx="2.5" fill="#fde2cf" stroke="#c05621" stroke-width="1"/>
<circle cx="524.4" cy="264.2" r="10.0" fill="#ffffff" stroke="#333" stroke-width="0.8"/>
<text x="524.4" y="267.2" font-size="9" fill="#1a202c" text-anchor="middle">RCtrl</text>
<rect x="545.5" y="247.2" width="34.0" height="34.0" rx="2.5" fill="#fde2cf" stroke="#c05621" stroke-width="1"/>
<circle cx="562.5" cy="264.2" r="10.0" fill="#ffffff" stroke="#333" stroke-width="0.8"/>
<text x="562.5" y="267.2" font-size="9" fill="#1a202c" text-anchor="middle">Left</text>
<rect x="583.6" y="247.2" width="34.0" height="34.0" rx="2.5" fill="#fde2cf" stroke="#c05621" stroke-width="1"/>
<circle cx="600.6" cy="264.2" r="10.0" fill="#ffffff" stroke="#333" stroke-width="0.8"/>
<text x="600.6" y="267.2" font-size="9" fill="#1a202c" text-anchor="middle">Down</text>
<rect x="621.7" y="247.2" width="34.0" height="34.0" rx="2.5" fill="#fde2cf" stroke="#c05621" stroke-width="1"/>
<circle cx="638.7" cy="264.2" r="10.0" fill="#ffffff" stroke="#333" stroke-width="0.8"/>
<text x="638.7" y="267.2" font-size="9" fill="#1a202c" text-anchor="middle">Right</text>
<path d="M353.0,44.0 L353.0,130.8 L333.9,130.8 L333.9,168.9 L343.4,168.9 L343.4,207.1 L362.5,207.1 L362.5,245.2 L353.0,245.2 L353.0,292.0" fill="none" stroke="#e53e3e" stroke-width="3.5" stroke-dasharray="9,5"/>
<text x="364.0" y="60.0" font-size="13" font-weight="bold" fill="#e53e3e">STEPPED SEAM</text>
<line x1="163.0" y1="188.0" x2="181.0" y2="188.0" stroke="#000" stroke-width="1.5"/>
<line x1="172.0" y1="179.0" x2="172.0" y2="197.0" stroke="#000" stroke-width="1.5"/>
<text x="172.0" y="214.0" font-size="10" font-weight="bold" fill="#000" text-anchor="middle">S = origin (0,0)</text>
<rect x="44" y="296.0" width="16" height="16" fill="#cfe3f7" stroke="#2b6cb0"/><text x="66" y="309.0" font-size="12" fill="#1a202c">LEFT half — 41 keys, 158.6 x 117mm</text>
<rect x="294" y="296.0" width="16" height="16" fill="#fde2cf" stroke="#c05621"/><text x="316" y="309.0" font-size="12" fill="#1a202c">RIGHT half — 43 keys, 163.4 x 117mm</text>
<text x="554" y="309.0" font-size="12" fill="#e53e3e">– – – seam (clears every hole ≥9.5mm)</text>
<text x="700" y="46" font-size="11" fill="#718096" text-anchor="end">X→ right · Y↑ toward keyboard back · holes Ø10</text>
</svg>