0
SECTION
2
HEADER
9
$INSUNITS
70
4
0
ENDSEC
0
SECTION
2
TABLES
0
TABLE
2
LAYER
70
3
0
LAYER
2
HOLES
70
0
62
1
6
CONTINUOUS
0
LAYER
2
PLATE
70
0
62
5
6
CONTINUOUS
0
LAYER
2
ORIGIN
70
0
62
2
6
CONTINUOUS
0
ENDTAB
0
ENDSEC
0
SECTION
2
ENTITIES
0
CIRCLE
8
HOLES
10
-52.3900
20
57.1500
30
0.0
40
5.0000
0
CIRCLE
8
HOLES
10
-33.3400
20
57.1500
30
0.0
40
5.0000
0
CIRCLE
8
HOLES
10
-14.2900
20
57.1500
30
0.0
40
5.0000
0
CIRCLE
8
HOLES
10
4.7600
20
57.1500
30
0.0
40
5.0000
0
CIRCLE
8
HOLES
10
23.8100
20
57.1500
30
0.0
40
5.0000
0
CIRCLE
8
HOLES
10
42.8600
20
57.1500
30
0.0
40
5.0000
0
CIRCLE
8
HOLES
10
61.9100
20
57.1500
30
0.0
40
5.0000
0
CIRCLE
8
HOLES
10
80.9600
20
57.1500
30
0.0
40
5.0000
0
CIRCLE
8
HOLES
10
100.0100
20
57.1500
30
0.0
40
5.0000
0
CIRCLE
8
HOLES
10
119.0600
20
57.1500
30
0.0
40
5.0000
0
CIRCLE
8
HOLES
10
138.1100
20
57.1500
30
0.0
40
5.0000
0
CIRCLE
8
HOLES
10
157.1600
20
57.1500
30
0.0
40
5.0000
0
CIRCLE
8
HOLES
10
176.2100
20
57.1500
30
0.0
40
5.0000
0
CIRCLE
8
HOLES
10
195.2600
20
57.1500
30
0.0
40
5.0000
0
CIRCLE
8
HOLES
10
214.3100
20
57.1500
30
0.0
40
5.0000
0
CIRCLE
8
HOLES
10
233.3600
20
57.1500
30
0.0
40
5.0000
0
CIRCLE
8
HOLES
10
-52.3900
20
38.1000
30
0.0
40
5.0000
0
CIRCLE
8
HOLES
10
-33.3400
20
38.1000
30
0.0
40
5.0000
0
CIRCLE
8
HOLES
10
-14.2900
20
38.1000
30
0.0
40
5.0000
0
CIRCLE
8
HOLES
10
4.7600
20
38.1000
30
0.0
40
5.0000
0
CIRCLE
8
HOLES
10
23.8100
20
38.1000
30
0.0
40
5.0000
0
CIRCLE
8
HOLES
10
42.8600
20
38.1000
30
0.0
40
5.0000
0
CIRCLE
8
HOLES
10
61.9100
20
38.1000
30
0.0
40
5.0000
0
CIRCLE
8
HOLES
10
80.9600
20
38.1000
30
0.0
40
5.0000
0
CIRCLE
8
HOLES
10
100.0100
20
38.1000
30
0.0
40
5.0000
0
CIRCLE
8
HOLES
10
119.0600
20
38.1000
30
0.0
40
5.0000
0
CIRCLE
8
HOLES
10
138.1100
20
38.1000
30
0.0
40
5.0000
0
CIRCLE
8
HOLES
10
157.1600
20
38.1000
30
0.0
40
5.0000
0
CIRCLE
8
HOLES
10
176.2100
20
38.1000
30
0.0
40
5.0000
0
CIRCLE
8
HOLES
10
204.7900
20
38.1000
30
0.0
40
5.0000
0
CIRCLE
8
HOLES
10
233.3600
20
38.1000
30
0.0
40
5.0000
0
CIRCLE
8
HOLES
10
-47.6200
20
19.0500
30
0.0
40
5.0000
0
CIRCLE
8
HOLES
10
-23.8100
20
19.0500
30
0.0
40
5.0000
0
CIRCLE
8
HOLES
10
-4.7600
20
19.0500
30
0.0
40
5.0000
0
CIRCLE
8
HOLES
10
14.2900
20
19.0500
30
0.0
40
5.0000
0
CIRCLE
8
HOLES
10
33.3400
20
19.0500
30
0.0
40
5.0000
0
CIRCLE
8
HOLES
10
52.3900
20
19.0500
30
0.0
40
5.0000
0
CIRCLE
8
HOLES
10
71.4400
20
19.0500
30
0.0
40
5.0000
0
CIRCLE
8
HOLES
10
90.4900
20
19.0500
30
0.0
40
5.0000
0
CIRCLE
8
HOLES
10
109.5400
20
19.0500
30
0.0
40
5.0000
0
CIRCLE
8
HOLES
10
128.5900
20
19.0500
30
0.0
40
5.0000
0
CIRCLE
8
HOLES
10
147.6400
20
19.0500
30
0.0
40
5.0000
0
CIRCLE
8
HOLES
10
166.6900
20
19.0500
30
0.0
40
5.0000
0
CIRCLE
8
HOLES
10
185.7400
20
19.0500
30
0.0
40
5.0000
0
CIRCLE
8
HOLES
10
209.5500
20
19.0500
30
0.0
40
5.0000
0
CIRCLE
8
HOLES
10
233.3600
20
19.0500
30
0.0
40
5.0000
0
CIRCLE
8
HOLES
10
-45.2400
20
0.0000
30
0.0
40
5.0000
0
CIRCLE
8
HOLES
10
-19.0500
20
0.0000
30
0.0
40
5.0000
0
CIRCLE
8
HOLES
10
0.0000
20
0.0000
30
0.0
40
5.0000
0
CIRCLE
8
HOLES
10
19.0500
20
0.0000
30
0.0
40
5.0000
0
CIRCLE
8
HOLES
10
38.1000
20
0.0000
30
0.0
40
5.0000
0
CIRCLE
8
HOLES
10
57.1500
20
0.0000
30
0.0
40
5.0000
0
CIRCLE
8
HOLES
10
76.2000
20
0.0000
30
0.0
40
5.0000
0
CIRCLE
8
HOLES
10
95.2500
20
0.0000
30
0.0
40
5.0000
0
CIRCLE
8
HOLES
10
114.3000
20
0.0000
30
0.0
40
5.0000
0
CIRCLE
8
HOLES
10
133.3500
20
0.0000
30
0.0
40
5.0000
0
CIRCLE
8
HOLES
10
152.4000
20
0.0000
30
0.0
40
5.0000
0
CIRCLE
8
HOLES
10
171.4500
20
0.0000
30
0.0
40
5.0000
0
CIRCLE
8
HOLES
10
202.4100
20
0.0000
30
0.0
40
5.0000
0
CIRCLE
8
HOLES
10
233.3600
20
0.0000
30
0.0
40
5.0000
0
CIRCLE
8
HOLES
10
-40.4800
20
-19.0500
30
0.0
40
5.0000
0
CIRCLE
8
HOLES
10
-9.5300
20
-19.0500
30
0.0
40
5.0000
0
CIRCLE
8
HOLES
10
9.5300
20
-19.0500
30
0.0
40
5.0000
0
CIRCLE
8
HOLES
10
28.5800
20
-19.0500
30
0.0
40
5.0000
0
CIRCLE
8
HOLES
10
47.6200
20
-19.0500
30
0.0
40
5.0000
0
CIRCLE
8
HOLES
10
66.6700
20
-19.0500
30
0.0
40
5.0000
0
CIRCLE
8
HOLES
10
85.7300
20
-19.0500
30
0.0
40
5.0000
0
CIRCLE
8
HOLES
10
104.7800
20
-19.0500
30
0.0
40
5.0000
0
CIRCLE
8
HOLES
10
123.8300
20
-19.0500
30
0.0
40
5.0000
0
CIRCLE
8
HOLES
10
142.8800
20
-19.0500
30
0.0
40
5.0000
0
CIRCLE
8
HOLES
10
161.9300
20
-19.0500
30
0.0
40
5.0000
0
CIRCLE
8
HOLES
10
188.1200
20
-19.0500
30
0.0
40
5.0000
0
CIRCLE
8
HOLES
10
214.3100
20
-19.0500
30
0.0
40
5.0000
0
CIRCLE
8
HOLES
10
233.3600
20
-19.0500
30
0.0
40
5.0000
0
CIRCLE
8
HOLES
10
-50.0100
20
-38.1000
30
0.0
40
5.0000
0
CIRCLE
8
HOLES
10
-26.1900
20
-38.1000
30
0.0
40
5.0000
0
CIRCLE
8
HOLES
10
-2.3800
20
-38.1000
30
0.0
40
5.0000
0
CIRCLE
8
HOLES
10
69.0600
20
-38.1000
30
0.0
40
5.0000
0
CIRCLE
8
HOLES
10
138.1100
20
-38.1000
30
0.0
40
5.0000
0
CIRCLE
8
HOLES
10
157.1600
20
-38.1000
30
0.0
40
5.0000
0
CIRCLE
8
HOLES
10
176.2100
20
-38.1000
30
0.0
40
5.0000
0
CIRCLE
8
HOLES
10
195.2600
20
-38.1000
30
0.0
40
5.0000
0
CIRCLE
8
HOLES
10
214.3100
20
-38.1000
30
0.0
40
5.0000
0
CIRCLE
8
HOLES
10
233.3600
20
-38.1000
30
0.0
40
5.0000
0
LINE
8
PLATE
10
-63.3900
20
-49.1000
30
0.0
11
244.3600
21
-49.1000
31
0.0
0
LINE
8
PLATE
10
244.3600
20
-49.1000
30
0.0
11
244.3600
21
68.1500
31
0.0
0
LINE
8
PLATE
10
244.3600
20
68.1500
30
0.0
11
-63.3900
21
68.1500
31
0.0
0
LINE
8
PLATE
10
-63.3900
20
68.1500
30
0.0
11
-63.3900
21
-49.1000
31
0.0
0
LINE
8
ORIGIN
10
-6.0000
20
0.0000
30
0.0
11
6.0000
21
0.0000
31
0.0
0
LINE
8
ORIGIN
10
0.0000
20
-6.0000
30
0.0
11
0.0000
21
6.0000
31
0.0
0
TEXT
8
ORIGIN
10
2.5000
20
2.5000
30
0.0
40
4.000
1
S
0
ENDSEC
0
EOF
