G04 #@! TF.GenerationSoftware,KiCad,Pcbnew,10.0.4*
G04 #@! TF.CreationDate,2026-07-26T23:56:02-05:00*
G04 #@! TF.ProjectId,solenoid_driver,736f6c65-6e6f-4696-945f-647269766572,rev?*
G04 #@! TF.SameCoordinates,Original*
G04 #@! TF.FileFunction,Soldermask,Top*
G04 #@! TF.FilePolarity,Negative*
%FSLAX46Y46*%
G04 Gerber Fmt 4.6, Leading zero omitted, Abs format (unit mm)*
G04 Created by KiCad (PCBNEW 10.0.4) date 2026-07-26 23:56:02*
%MOMM*%
%LPD*%
G01*
G04 APERTURE LIST*
G04 Aperture macros list*
%AMRoundRect*
0 Rectangle with rounded corners*
0 $1 Rounding radius*
0 $2 $3 $4 $5 $6 $7 $8 $9 X,Y pos of 4 corners*
0 Add a 4 corners polygon primitive as box body*
4,1,4,$2,$3,$4,$5,$6,$7,$8,$9,$2,$3,0*
0 Add four circle primitives for the rounded corners*
1,1,$1+$1,$2,$3*
1,1,$1+$1,$4,$5*
1,1,$1+$1,$6,$7*
1,1,$1+$1,$8,$9*
0 Add four rect primitives between the rounded corners*
20,1,$1+$1,$2,$3,$4,$5,0*
20,1,$1+$1,$4,$5,$6,$7,0*
20,1,$1+$1,$6,$7,$8,$9,0*
20,1,$1+$1,$8,$9,$2,$3,0*%
G04 Aperture macros list end*
%ADD10RoundRect,0.250001X-0.949999X-0.949999X0.949999X-0.949999X0.949999X0.949999X-0.949999X0.949999X0*%
%ADD11C,2.400000*%
%ADD12RoundRect,0.250000X-0.550000X-0.550000X0.550000X-0.550000X0.550000X0.550000X-0.550000X0.550000X0*%
%ADD13C,1.600000*%
%ADD14C,2.000000*%
%ADD15R,1.700000X1.700000*%
%ADD16C,1.700000*%
G04 APERTURE END LIST*
D10*
X153640000Y-157000000D03*
D11*
X158720000Y-157000000D03*
D12*
X165500000Y-122840000D03*
D13*
X165500000Y-125380000D03*
X165500000Y-127920000D03*
X165500000Y-130460000D03*
X165500000Y-133000000D03*
X165500000Y-135540000D03*
X165500000Y-138080000D03*
X165500000Y-140620000D03*
X165500000Y-143160000D03*
X173120000Y-143160000D03*
X173120000Y-140620000D03*
X173120000Y-138080000D03*
X173120000Y-135540000D03*
X173120000Y-133000000D03*
X173120000Y-130460000D03*
X173120000Y-127920000D03*
X173120000Y-125380000D03*
X173120000Y-122840000D03*
D14*
X187000000Y-148000000D03*
X192000000Y-148000000D03*
D10*
X169480000Y-109450000D03*
D11*
X164400000Y-109450000D03*
D15*
X104000000Y-126650000D03*
D16*
X104000000Y-129190000D03*
X104000000Y-131730000D03*
X104000000Y-134270000D03*
X104000000Y-136810000D03*
X104000000Y-139350000D03*
D12*
X114000000Y-124110000D03*
D13*
X114000000Y-126650000D03*
X114000000Y-129190000D03*
X114000000Y-131730000D03*
X114000000Y-134270000D03*
X114000000Y-136810000D03*
X114000000Y-139350000D03*
X114000000Y-141890000D03*
X121620000Y-141890000D03*
X121620000Y-139350000D03*
X121620000Y-136810000D03*
X121620000Y-134270000D03*
X121620000Y-131730000D03*
X121620000Y-129190000D03*
X121620000Y-126650000D03*
X121620000Y-124110000D03*
D14*
X187000000Y-118000000D03*
X192000000Y-118000000D03*
D12*
X175500000Y-124110000D03*
D13*
X175500000Y-126650000D03*
X175500000Y-129190000D03*
X175500000Y-131730000D03*
X175500000Y-134270000D03*
X175500000Y-136810000D03*
X175500000Y-139350000D03*
X175500000Y-141890000D03*
X183120000Y-141890000D03*
X183120000Y-139350000D03*
X183120000Y-136810000D03*
X183120000Y-134270000D03*
X183120000Y-131730000D03*
X183120000Y-129190000D03*
X183120000Y-126650000D03*
X183120000Y-124110000D03*
D12*
X134500000Y-124110000D03*
D13*
X134500000Y-126650000D03*
X134500000Y-129190000D03*
X134500000Y-131730000D03*
X134500000Y-134270000D03*
X134500000Y-136810000D03*
X134500000Y-139350000D03*
X134500000Y-141890000D03*
X142120000Y-141890000D03*
X142120000Y-139350000D03*
X142120000Y-136810000D03*
X142120000Y-134270000D03*
X142120000Y-131730000D03*
X142120000Y-129190000D03*
X142120000Y-126650000D03*
X142120000Y-124110000D03*
D15*
X203000000Y-150000000D03*
D16*
X203000000Y-152540000D03*
X203000000Y-155080000D03*
X203000000Y-157620000D03*
X203000000Y-160160000D03*
X203000000Y-162700000D03*
D12*
X155000000Y-124110000D03*
D13*
X155000000Y-126650000D03*
X155000000Y-129190000D03*
X155000000Y-131730000D03*
X155000000Y-134270000D03*
X155000000Y-136810000D03*
X155000000Y-139350000D03*
X155000000Y-141890000D03*
X162620000Y-141890000D03*
X162620000Y-139350000D03*
X162620000Y-136810000D03*
X162620000Y-134270000D03*
X162620000Y-131730000D03*
X162620000Y-129190000D03*
X162620000Y-126650000D03*
X162620000Y-124110000D03*
D10*
X139000000Y-109450000D03*
D11*
X133920000Y-109450000D03*
D10*
X133320000Y-157000000D03*
D11*
X138400000Y-157000000D03*
D10*
X113000000Y-157000000D03*
D11*
X118080000Y-157000000D03*
D10*
X184120000Y-157000000D03*
D11*
X189200000Y-157000000D03*
D10*
X128840000Y-109450000D03*
D11*
X123760000Y-109450000D03*
D10*
X189800000Y-109450000D03*
D11*
X184720000Y-109450000D03*
D10*
X118680000Y-109450000D03*
D11*
X113600000Y-109450000D03*
D14*
X137500000Y-118000000D03*
X142500000Y-118000000D03*
X178500000Y-118000000D03*
X183500000Y-118000000D03*
D10*
X123160000Y-157000000D03*
D11*
X128240000Y-157000000D03*
D13*
X105000000Y-149000000D03*
X115160000Y-149000000D03*
D12*
X124500000Y-122840000D03*
D13*
X124500000Y-125380000D03*
X124500000Y-127920000D03*
X124500000Y-130460000D03*
X124500000Y-133000000D03*
X124500000Y-135540000D03*
X124500000Y-138080000D03*
X124500000Y-140620000D03*
X124500000Y-143160000D03*
X132120000Y-143160000D03*
X132120000Y-140620000D03*
X132120000Y-138080000D03*
X132120000Y-135540000D03*
X132120000Y-133000000D03*
X132120000Y-130460000D03*
X132120000Y-127920000D03*
X132120000Y-125380000D03*
X132120000Y-122840000D03*
D10*
X173960000Y-157000000D03*
D11*
X179040000Y-157000000D03*
D10*
X159320000Y-109450000D03*
D11*
X154240000Y-109450000D03*
D14*
X158000000Y-118000000D03*
X163000000Y-118000000D03*
D10*
X179640000Y-109450000D03*
D11*
X174560000Y-109450000D03*
D12*
X186000000Y-122840000D03*
D13*
X186000000Y-125380000D03*
X186000000Y-127920000D03*
X186000000Y-130460000D03*
X186000000Y-133000000D03*
X186000000Y-135540000D03*
X186000000Y-138080000D03*
X186000000Y-140620000D03*
X186000000Y-143160000D03*
X193620000Y-143160000D03*
X193620000Y-140620000D03*
X193620000Y-138080000D03*
X193620000Y-135540000D03*
X193620000Y-133000000D03*
X193620000Y-130460000D03*
X193620000Y-127920000D03*
X193620000Y-125380000D03*
X193620000Y-122840000D03*
D10*
X201000000Y-138000000D03*
D11*
X206080000Y-138000000D03*
D10*
X149160000Y-109450000D03*
D11*
X144080000Y-109450000D03*
D10*
X203000000Y-120000000D03*
D11*
X210500000Y-120000000D03*
D12*
X145000000Y-122840000D03*
D13*
X145000000Y-125380000D03*
X145000000Y-127920000D03*
X145000000Y-130460000D03*
X145000000Y-133000000D03*
X145000000Y-135540000D03*
X145000000Y-138080000D03*
X145000000Y-140620000D03*
X145000000Y-143160000D03*
X152620000Y-143160000D03*
X152620000Y-140620000D03*
X152620000Y-138080000D03*
X152620000Y-135540000D03*
X152620000Y-133000000D03*
X152620000Y-130460000D03*
X152620000Y-127920000D03*
X152620000Y-125380000D03*
X152620000Y-122840000D03*
D14*
X117000000Y-118000000D03*
X122000000Y-118000000D03*
D10*
X143480000Y-157000000D03*
D11*
X148560000Y-157000000D03*
D10*
X163800000Y-157000000D03*
D11*
X168880000Y-157000000D03*
M02*
