M48
; DRILL file KiCad 10.0.4 date 2026-07-26T23:57:31
; FORMAT={-:-/ absolute / metric / decimal}
; #@! TF.CreationDate,2026-07-26T23:57:31-05:00
; #@! TF.GenerationSoftware,Kicad,Pcbnew,10.0.4
; #@! TF.FileFunction,MixedPlating,1,2
FMAT,2
METRIC
; #@! TA.AperFunction,Plated,PTH,ViaDrill
T1C0.300
; #@! TA.AperFunction,Plated,PTH,ComponentDrill
T2C0.800
; #@! TA.AperFunction,Plated,PTH,ComponentDrill
T3C1.000
; #@! TA.AperFunction,Plated,PTH,ComponentDrill
T4C1.200
; #@! TA.AperFunction,Plated,PTH,ComponentDrill
T5C1.600
%
G90
G05
T1
X117.92Y-137.27
X118.677Y-135.064
X121.32Y-143.67
X128.02Y-137.63
X129.22Y-136.03
X129.5Y-138.99
X130.6Y-143.36
X130.82Y-144.37
X136.62Y-134.97
X136.9Y-143.16
X137.42Y-141.43
X138.82Y-137.13
X140.02Y-145.1
X140.32Y-136.43
X148.82Y-140.23
X149.62Y-138.73
X150.92Y-143.53
X153.92Y-145.1
X157.02Y-143.11
X166.9Y-139.69
X167.22Y-131.73
X169.9Y-136.69
X171.32Y-143.51
X172.18Y-120.85
X174.3Y-120.85
X178.12Y-141.37
X179.969Y-146.862
X180.82Y-122.93
X181.03Y-144.936
X181.22Y-134.77
X188.4Y-145.16
X188.633Y-146.684
X189.4Y-143.46
X190.1Y-145.86
X201.806Y-132.999
T2
X105.0Y-149.0
X114.0Y-124.11
X114.0Y-126.65
X114.0Y-129.19
X114.0Y-131.73
X114.0Y-134.27
X114.0Y-136.81
X114.0Y-139.35
X114.0Y-141.89
X115.16Y-149.0
X121.62Y-124.11
X121.62Y-126.65
X121.62Y-129.19
X121.62Y-131.73
X121.62Y-134.27
X121.62Y-136.81
X121.62Y-139.35
X121.62Y-141.89
X124.5Y-122.84
X124.5Y-125.38
X124.5Y-127.92
X124.5Y-130.46
X124.5Y-133.0
X124.5Y-135.54
X124.5Y-138.08
X124.5Y-140.62
X124.5Y-143.16
X132.12Y-122.84
X132.12Y-125.38
X132.12Y-127.92
X132.12Y-130.46
X132.12Y-133.0
X132.12Y-135.54
X132.12Y-138.08
X132.12Y-140.62
X132.12Y-143.16
X134.5Y-124.11
X134.5Y-126.65
X134.5Y-129.19
X134.5Y-131.73
X134.5Y-134.27
X134.5Y-136.81
X134.5Y-139.35
X134.5Y-141.89
X142.12Y-124.11
X142.12Y-126.65
X142.12Y-129.19
X142.12Y-131.73
X142.12Y-134.27
X142.12Y-136.81
X142.12Y-139.35
X142.12Y-141.89
X145.0Y-122.84
X145.0Y-125.38
X145.0Y-127.92
X145.0Y-130.46
X145.0Y-133.0
X145.0Y-135.54
X145.0Y-138.08
X145.0Y-140.62
X145.0Y-143.16
X152.62Y-122.84
X152.62Y-125.38
X152.62Y-127.92
X152.62Y-130.46
X152.62Y-133.0
X152.62Y-135.54
X152.62Y-138.08
X152.62Y-140.62
X152.62Y-143.16
X155.0Y-124.11
X155.0Y-126.65
X155.0Y-129.19
X155.0Y-131.73
X155.0Y-134.27
X155.0Y-136.81
X155.0Y-139.35
X155.0Y-141.89
X162.62Y-124.11
X162.62Y-126.65
X162.62Y-129.19
X162.62Y-131.73
X162.62Y-134.27
X162.62Y-136.81
X162.62Y-139.35
X162.62Y-141.89
X165.5Y-122.84
X165.5Y-125.38
X165.5Y-127.92
X165.5Y-130.46
X165.5Y-133.0
X165.5Y-135.54
X165.5Y-138.08
X165.5Y-140.62
X165.5Y-143.16
X173.12Y-122.84
X173.12Y-125.38
X173.12Y-127.92
X173.12Y-130.46
X173.12Y-133.0
X173.12Y-135.54
X173.12Y-138.08
X173.12Y-140.62
X173.12Y-143.16
X175.5Y-124.11
X175.5Y-126.65
X175.5Y-129.19
X175.5Y-131.73
X175.5Y-134.27
X175.5Y-136.81
X175.5Y-139.35
X175.5Y-141.89
X183.12Y-124.11
X183.12Y-126.65
X183.12Y-129.19
X183.12Y-131.73
X183.12Y-134.27
X183.12Y-136.81
X183.12Y-139.35
X183.12Y-141.89
X186.0Y-122.84
X186.0Y-125.38
X186.0Y-127.92
X186.0Y-130.46
X186.0Y-133.0
X186.0Y-135.54
X186.0Y-138.08
X186.0Y-140.62
X186.0Y-143.16
X193.62Y-122.84
X193.62Y-125.38
X193.62Y-127.92
X193.62Y-130.46
X193.62Y-133.0
X193.62Y-135.54
X193.62Y-138.08
X193.62Y-140.62
X193.62Y-143.16
T3
X104.0Y-126.65
X104.0Y-129.19
X104.0Y-131.73
X104.0Y-134.27
X104.0Y-136.81
X104.0Y-139.35
X117.0Y-118.0
X122.0Y-118.0
X137.5Y-118.0
X142.5Y-118.0
X158.0Y-118.0
X163.0Y-118.0
X178.5Y-118.0
X183.5Y-118.0
X187.0Y-118.0
X187.0Y-148.0
X192.0Y-118.0
X192.0Y-148.0
X203.0Y-150.0
X203.0Y-152.54
X203.0Y-155.08
X203.0Y-157.62
X203.0Y-160.16
X203.0Y-162.7
T4
X203.0Y-120.0
X210.5Y-120.0
T5
X113.0Y-157.0
X113.6Y-109.45
X118.08Y-157.0
X118.68Y-109.45
X123.16Y-157.0
X123.76Y-109.45
X128.24Y-157.0
X128.84Y-109.45
X133.32Y-157.0
X133.92Y-109.45
X138.4Y-157.0
X139.0Y-109.45
X143.48Y-157.0
X144.08Y-109.45
X148.56Y-157.0
X149.16Y-109.45
X153.64Y-157.0
X154.24Y-109.45
X158.72Y-157.0
X159.32Y-109.45
X163.8Y-157.0
X164.4Y-109.45
X168.88Y-157.0
X169.48Y-109.45
X173.96Y-157.0
X174.56Y-109.45
X179.04Y-157.0
X179.64Y-109.45
X184.12Y-157.0
X184.72Y-109.45
X189.2Y-157.0
X189.8Y-109.45
X201.0Y-138.0
X206.08Y-138.0
M30
